<svg xmlns="http://www.w3.org/2000/svg" xmlns:xlink="http://www.w3.org/1999/xlink" viewBox="0 0 160 32.35"><defs><style>.cls-1{fill:url(#linear-gradient);}.cls-2{fill:url(#linear-gradient-2);}.cls-3{fill:url(#linear-gradient-3);}.cls-4{fill:url(#linear-gradient-4);}.cls-5{fill:url(#linear-gradient-5);}.cls-6{fill:#ff2b6f;}.cls-7{fill:url(#linear-gradient-6);}.cls-8{fill:url(#linear-gradient-7);}.cls-9{fill:url(#linear-gradient-8);}.cls-10{fill:url(#linear-gradient-9);}.cls-11{fill:url(#linear-gradient-10);}.cls-12{fill:url(#linear-gradient-11);}.cls-13{fill:url(#linear-gradient-12);}.cls-14{fill:url(#linear-gradient-13);}</style><linearGradient id="linear-gradient" x1="70.22" y1="18.22" x2="173.73" y2="20.22" gradientUnits="userSpaceOnUse"><stop offset="0" stop-color="#ff2a7d"/><stop offset="1" stop-color="#ffbd54"/></linearGradient><linearGradient id="linear-gradient-2" x1="70.17" y1="20.82" x2="173.67" y2="22.82" xlink:href="#linear-gradient"/><linearGradient id="linear-gradient-3" x1="70.24" y1="17.38" x2="173.74" y2="19.38" xlink:href="#linear-gradient"/><linearGradient id="linear-gradient-4" x1="70.18" y1="20.09" x2="173.69" y2="22.09" xlink:href="#linear-gradient"/><linearGradient id="linear-gradient-5" x1="70.18" y1="19.78" x2="173.69" y2="21.78" xlink:href="#linear-gradient"/><linearGradient id="linear-gradient-6" x1="31.21" y1="20.28" x2="55.35" y2="20.28" xlink:href="#linear-gradient"/><linearGradient id="linear-gradient-7" x1="79.52" y1="5.58" x2="163.34" y2="2.02" xlink:href="#linear-gradient"/><linearGradient id="linear-gradient-8" x1="79.54" y1="6" x2="163.35" y2="2.43" xlink:href="#linear-gradient"/><linearGradient id="linear-gradient-9" x1="79.55" y1="6.25" x2="163.36" y2="2.68" xlink:href="#linear-gradient"/><linearGradient id="linear-gradient-10" x1="79.56" y1="6.6" x2="163.38" y2="3.03" xlink:href="#linear-gradient"/><linearGradient id="linear-gradient-11" x1="79.53" y1="6.81" x2="163.4" y2="3.24" xlink:href="#linear-gradient"/><linearGradient id="linear-gradient-12" x1="79.57" y1="6.95" x2="163.4" y2="3.38" xlink:href="#linear-gradient"/><linearGradient id="linear-gradient-13" x1="79.59" y1="7.23" x2="163.41" y2="3.66" xlink:href="#linear-gradient"/></defs><title>logo</title><g id="레이어_2" data-name="레이어 2"><g id="Layer_1" data-name="Layer 1"><path class="cls-1" d="M78.29,16H69.88v3.24c0,1,.48,1.49,1.29,1.51h7.12v4.1h-8.2c-2.71,0-4.25-1.08-4.64-3.24a7.67,7.67,0,0,1-.1-1.29V11.89H78.29Zm6.91-4.1v4.32h2.59v4.1H85.2v4.53H80.67V11.89Z"/><path class="cls-2" d="M99.26,27h4.21v4.1h-13V27h4.21V25a6.77,6.77,0,0,1-4.25-3.71,7.09,7.09,0,0,1-.61-2.88A6.46,6.46,0,0,1,92.46,13,7.17,7.17,0,0,1,97,11.46,6.82,6.82,0,0,1,102.53,14a6.64,6.64,0,0,1,1.59,4.38,6.52,6.52,0,0,1-2.59,5.36A7.29,7.29,0,0,1,99.26,25ZM97,21.17A2.41,2.41,0,0,0,99.3,19.7a3.32,3.32,0,0,0,.28-1.34,2.67,2.67,0,0,0-1.36-2.48A2.54,2.54,0,0,0,97,15.56,2.4,2.4,0,0,0,94.69,17a3.31,3.31,0,0,0-.28,1.33,2.67,2.67,0,0,0,1.36,2.49A2.5,2.5,0,0,0,97,21.17Z"/><path class="cls-3" d="M115.26,11.89q4.06,0,4.64,3.24a7.65,7.65,0,0,1,.11,1.29v8.42h-4.53V17.5c0-1-.48-1.49-1.3-1.51h-7.12v-4.1Zm7.12,13V11.89h4.54v13Z"/><path class="cls-4" d="M143.46,16h-1.19v4.75h1.19v4.1h-13v-4.1h1.19V16h-1.19v-4.1h13Zm-13,14.89v-4.1h13v4.1Zm7.23-10.14V16h-1.51v4.75Z"/><path class="cls-5" d="M160,15.78h-8.41v.86H160v3.45h-8.41a.82.82,0,0,0,.86.86H160v3.89h-8.63q-3.78,0-4.24-3.06a7,7,0,0,1-.07-1V11.89H160Zm-12.94,15.1v-4.1H160v4.1Z"/><path class="cls-6" d="M0,32.35v-5.9a6.18,6.18,0,0,0,6.17-6.17A6.18,6.18,0,0,0,0,14.11V8.21A12.09,12.09,0,0,1,12.07,20.28,12.09,12.09,0,0,1,0,32.35Z"/><path class="cls-7" d="M43.28,8.21A12.07,12.07,0,1,0,55.35,20.28,12.09,12.09,0,0,0,43.28,8.21Z"/><polygon class="cls-6" points="21.53 8.21 11.32 32.35 21.53 32.35 31.75 32.35 21.53 8.21"/><path class="cls-8" d="M116.12,7.81V.14h2.1a3.84,3.84,0,0,1,2.79,1A3.73,3.73,0,0,1,122,4a3.86,3.86,0,0,1-1,2.87,3.68,3.68,0,0,1-2.72,1Zm1.53-1.24h.47c1.55,0,2.32-.87,2.32-2.62s-.77-2.58-2.32-2.58h-.47Z"/><path class="cls-9" d="M127.52,7.81l-.54-2h-2.49l-.54,2H122.4L124.86.14h1.8l2.46,7.67Zm-2.69-3.16h1.82l-.23-.84c-.09-.3-.21-.75-.37-1.35s-.26-1-.3-1.16h0c-.19.83-.41,1.67-.65,2.51Z"/><path class="cls-10" d="M135.43,6.87a3.4,3.4,0,0,1-5,0A4.29,4.29,0,0,1,129.52,4a4.18,4.18,0,0,1,.94-2.9,3.47,3.47,0,0,1,5,0,4.2,4.2,0,0,1,.94,2.9A4.29,4.29,0,0,1,135.43,6.87Zm-3.84-1a1.58,1.58,0,0,0,1.35.73,1.59,1.59,0,0,0,1.36-.73A3.32,3.32,0,0,0,134.81,4,3.24,3.24,0,0,0,134.3,2a1.59,1.59,0,0,0-1.36-.7,1.61,1.61,0,0,0-1.36.7,3.31,3.31,0,0,0-.5,1.94A3.32,3.32,0,0,0,131.59,5.9Z"/><path class="cls-11" d="M141.16,8a3.55,3.55,0,0,1-2.65-1,4,4,0,0,1-1-2.9,4.07,4.07,0,0,1,1-2.93A3.52,3.52,0,0,1,141.16,0a3.24,3.24,0,0,1,2.38,1l-.82,1a2.1,2.1,0,0,0-1.5-.65,2,2,0,0,0-1.57.71,2.92,2.92,0,0,0-.6,1.94,3.06,3.06,0,0,0,.58,2,2.09,2.09,0,0,0,1.69.7,1.45,1.45,0,0,0,1-.29V4.83h-1.35V3.57h2.72V7a3.14,3.14,0,0,1-1.07.66A3.63,3.63,0,0,1,141.16,8Z"/><path class="cls-12" d="M145.3,7.81V.14h1.53V7.81Z"/><path class="cls-13" d="M148.71,7.81V.14h4.73V1.42h-3.19v2H153V4.7h-2.72V7.81Z"/><path class="cls-14" d="M156.29,7.81V1.42h-2.15V.14H160V1.42h-2.17V7.81Z"/></g></g></svg>